<svg version="1.1"
     baseProfile="full"
     width="1000" height="1000"
     xmlns="http://www.w3.org/2000/svg">
    <circle cx="326" cy="248" r="207" fill="red" />
    <path d="M245 479
            A 243 243, 0, 0, 0, 406 479
            L 406 786
            L 243 786 Z"
          fill="grey"/>
    <path d="M542 826
            A 70 70, 0, 0, 1, 612 896
            L 612 974
            L 44 974
            L 44 896
            A 70 70, 0, 0, 1, 114 826"
          fill="black" />
    <path d="M555 340
            A 243 243, 0, 0, 0, 555 156
            L 1000 156
            L 1000 340"
          fill="#203864" />
    <path d="M449 463
            A 243, 243, 0, 0, 0, 505 417
            L 1000 417
            L 1000 601
            L 449 601"
          fill="#203864" />
    <path d="M 641 862
            A 109 109, 0, 0, 0, 539 786
            L 449 786
            L 449 678
            L 1000 678
            L 1000 862"
          fill="#203864" />
</svg>